<svg width="300" height="43" viewBox="0 0 300 43" fill="none" xmlns="http://www.w3.org/2000/svg">
<rect x="1" y="1" width="8.59844" height="41.0814" fill="#A51C30"/>
<rect x="0.761155" y="0.761155" width="9.07613" height="41.5591" stroke="#5C5C5C" stroke-opacity="0.88" stroke-width="0.477691"/>
<rect x="139.53" y="1" width="8.59844" height="41.0814" fill="#A51C2E"/>
<rect x="139.291" y="0.761155" width="9.07613" height="41.5591" stroke="#5C5C5C" stroke-opacity="0.88" stroke-width="0.477691"/>
<rect x="21.0625" y="17.2417" width="8.59844" height="24.8399" fill="#C1C0BE"/>
<rect x="20.8237" y="17.0029" width="9.07613" height="25.3176" stroke="#5C5C5C" stroke-opacity="0.88" stroke-width="0.477691"/>
<rect x="43.0371" y="17.2417" width="8.59844" height="24.8399" fill="#000002"/>
<rect x="42.7983" y="17.0029" width="9.07613" height="25.3176" stroke="#5C5C5C" stroke-opacity="0.88" stroke-width="0.477691"/>
<rect x="53.5469" y="17.2417" width="8.59844" height="24.8399" fill="#A51C30"/>
<rect x="53.308" y="17.0029" width="9.07613" height="25.3176" stroke="#5C5C5C" stroke-opacity="0.88" stroke-width="0.477691"/>
<rect x="75.5195" y="17.2417" width="8.59844" height="24.8399" fill="#A41C30"/>
<rect x="75.2807" y="17.0029" width="9.07613" height="25.3176" stroke="#5C5C5C" stroke-opacity="0.88" stroke-width="0.477691"/>
<rect x="108.003" y="17.2417" width="8.59844" height="24.8399" fill="#C3BFBE"/>
<rect x="107.764" y="17.0029" width="9.07613" height="25.3176" stroke="#5C5C5C" stroke-opacity="0.88" stroke-width="0.477691"/>
<rect x="161.504" y="17.2417" width="8.59844" height="24.8399" fill="#A61B30"/>
<rect x="161.265" y="17.0029" width="9.07613" height="25.3176" stroke="#5C5C5C" stroke-opacity="0.88" stroke-width="0.477691"/>
<rect x="172.013" y="17.2417" width="8.59844" height="24.8399" fill="#C3BFBC"/>
<rect x="171.774" y="17.0029" width="9.07613" height="25.3176" stroke="#5C5C5C" stroke-opacity="0.88" stroke-width="0.477691"/>
<rect x="204.496" y="17.2417" width="8.59844" height="24.8399" fill="#A61B30"/>
<rect x="204.257" y="17.0029" width="9.07613" height="25.3176" stroke="#5C5C5C" stroke-opacity="0.88" stroke-width="0.477691"/>
<rect x="226.47" y="17.2417" width="8.59844" height="24.8399" fill="#A61B30"/>
<rect x="226.231" y="17.0029" width="9.07613" height="25.3176" stroke="#5C5C5C" stroke-opacity="0.88" stroke-width="0.477691"/>
<rect x="258.953" y="17.2417" width="8.59844" height="24.8399" fill="#A61B30"/>
<rect x="258.714" y="17.0029" width="9.07613" height="25.3176" stroke="#5C5C5C" stroke-opacity="0.88" stroke-width="0.477691"/>
<rect x="269.462" y="17.2417" width="8.59844" height="24.8399" fill="#C3BFBC"/>
<rect x="269.223" y="17.0029" width="9.07613" height="25.3176" stroke="#5C5C5C" stroke-opacity="0.88" stroke-width="0.477691"/>
<rect x="290.48" y="17.2417" width="8.59844" height="24.8399" fill="#A61B30"/>
<rect x="290.242" y="17.0029" width="9.07613" height="25.3176" stroke="#5C5C5C" stroke-opacity="0.88" stroke-width="0.477691"/>
<rect x="183.478" y="11.5093" width="8.59844" height="30.5722" fill="#A61B30"/>
<rect x="183.239" y="11.2704" width="9.07613" height="31.0499" stroke="#5C5C5C" stroke-opacity="0.88" stroke-width="0.477691"/>
<rect x="32.5273" y="25.8398" width="8.59844" height="16.2415" fill="#A51C2E"/>
<rect x="32.2885" y="25.601" width="9.07613" height="16.7192" stroke="#5C5C5C" stroke-opacity="0.88" stroke-width="0.477691"/>
<rect x="150.039" y="25.8398" width="8.59844" height="16.2415" fill="#C3BFBC"/>
<rect x="149.8" y="25.601" width="9.07613" height="16.7192" stroke="#5C5C5C" stroke-opacity="0.88" stroke-width="0.477691"/>
<rect x="279.972" y="17.2417" width="8.59844" height="16.2415" fill="#010000"/>
<rect x="279.733" y="17.0029" width="9.07613" height="16.7192" stroke="#5C5C5C" stroke-opacity="0.88" stroke-width="0.477691"/>
<rect x="215.005" y="17.2417" width="8.59844" height="16.2415" fill="#C3BFBC"/>
<rect x="214.766" y="17.0029" width="9.07613" height="16.7192" stroke="#5C5C5C" stroke-opacity="0.88" stroke-width="0.477691"/>
<rect x="247.488" y="25.8398" width="8.59844" height="16.2415" fill="#010000"/>
<rect x="247.249" y="25.601" width="9.07613" height="16.7192" stroke="#5C5C5C" stroke-opacity="0.88" stroke-width="0.477691"/>
<rect x="32.5273" y="17.2417" width="8.59844" height="3.82153" fill="#A51C2E"/>
<rect x="32.2885" y="17.0029" width="9.07613" height="4.29922" stroke="#5C5C5C" stroke-opacity="0.88" stroke-width="0.477691"/>
<rect x="150.039" y="17.2417" width="8.59844" height="3.82153" fill="#010000"/>
<rect x="149.8" y="17.0029" width="9.07613" height="4.29922" stroke="#5C5C5C" stroke-opacity="0.88" stroke-width="0.477691"/>
<rect x="193.032" y="27.1431" width="8.59844" height="3.82153" transform="rotate(-45 193.032 27.1431)" fill="#010000"/>
<rect x="192.694" y="27.1431" width="9.07613" height="4.29922" transform="rotate(-45 192.694 27.1431)" stroke="#5C5C5C" stroke-opacity="0.88" stroke-width="0.477691"/>
<rect x="215.005" y="38.2598" width="8.59844" height="3.82153" fill="#C3BFBC"/>
<rect x="214.766" y="38.0209" width="9.07613" height="4.29922" stroke="#5C5C5C" stroke-opacity="0.88" stroke-width="0.477691"/>
<rect x="247.488" y="17.2417" width="8.59844" height="3.82153" fill="#C3BFBC"/>
<rect x="247.249" y="17.0029" width="9.07613" height="4.29922" stroke="#5C5C5C" stroke-opacity="0.88" stroke-width="0.477691"/>
<rect x="279.972" y="38.2598" width="8.59844" height="3.82153" fill="#010000"/>
<rect x="279.733" y="38.0209" width="9.07613" height="4.29922" stroke="#5C5C5C" stroke-opacity="0.88" stroke-width="0.477691"/>
<rect x="65.0107" y="17.2417" width="8.59844" height="16.2415" fill="#C3BFC0"/>
<rect x="64.7719" y="17.0029" width="9.07613" height="16.7192" stroke="#5C5C5C" stroke-opacity="0.88" stroke-width="0.477691"/>
<rect x="86.0293" y="17.2417" width="8.59844" height="16.2415" fill="black"/>
<rect x="85.7905" y="17.0029" width="9.07613" height="16.7192" stroke="#5C5C5C" stroke-opacity="0.88" stroke-width="0.477691"/>
<rect x="97.4941" y="17.2417" width="8.59844" height="16.2415" fill="#A51C30"/>
<rect x="97.2553" y="17.0029" width="9.07613" height="16.7192" stroke="#5C5C5C" stroke-opacity="0.88" stroke-width="0.477691"/>
<rect x="10.5537" y="17.2417" width="8.59844" height="8.59844" fill="#FFBA00"/>
<rect x="10.3149" y="17.0029" width="9.07613" height="9.07613" stroke="#5C5C5C" stroke-opacity="0.88" stroke-width="0.477691"/>
<rect x="129.021" y="17.2417" width="8.59844" height="8.59844" fill="#FFBA00"/>
<rect x="128.782" y="17.0029" width="9.07613" height="9.07613" stroke="#5C5C5C" stroke-opacity="0.88" stroke-width="0.477691"/>
<rect x="236.024" y="17.2417" width="8.59844" height="8.59844" fill="#010000"/>
<rect x="235.786" y="17.0029" width="9.07613" height="9.07613" stroke="#5C5C5C" stroke-opacity="0.88" stroke-width="0.477691"/>
<rect x="193.032" y="33.4829" width="8.59844" height="8.59844" fill="#010000"/>
<rect x="192.793" y="33.2441" width="9.07613" height="9.07613" stroke="#5C5C5C" stroke-opacity="0.88" stroke-width="0.477691"/>
</svg>
